<?xml version="1.0" encoding="utf-8"?>
<!-- Generator: Adobe Illustrator 25.2.0, SVG Export Plug-In . SVG Version: 6.00 Build 0)  -->
<svg version="1.1" id="レイヤー_1" xmlns="http://www.w3.org/2000/svg" xmlns:xlink="http://www.w3.org/1999/xlink" x="0px"
	 y="0px" viewBox="0 0 240.03 36.9" style="enable-background:new 0 0 240.03 36.9;" xml:space="preserve">
<style type="text/css">
	.st0{fill:#231815;}
	.st1{fill:#B02D32;}
	.st2{fill:#AF2C32;}
	.st3{fill:#AF2C32;stroke:#FFFFFF;stroke-width:0.205;}
	.st4{fill:#FFFFFF;stroke:#AF2C32;stroke-width:0.124;}
	.st5{fill:#FFFFFF;stroke:#FFFFFF;stroke-width:0.0496;}
	.st6{fill:#F5A900;}
</style>
<g>
	<g>
		<path class="st0" d="M58.11,6.38v0.13h-3.74V6.38c-0.15-1.66-1.18-2.63-2.94-2.63c-1.58,0-2.99,0.8-2.99,2.46
			c0,1.68,1.15,1.98,5.07,2.91c2.63,0.63,5.09,1.78,5.09,4.87c0,3.69-3.29,5.9-7.65,5.9c-4.54,0-7.1-1.71-7.1-6.22h3.96v0.15
			c0,2.26,1.18,3.29,3.29,3.29c1.73,0,3.44-0.75,3.44-2.56c0-0.7-0.28-1.23-0.8-1.56c-0.68-0.4-1.71-0.63-2.51-0.83
			c-1.81-0.45-3.51-0.9-5.09-2.01c-1.08-0.75-1.71-2.01-1.71-3.49c0.02-3.94,3.26-5.65,7.18-5.65C55.1,1.01,58.11,2.57,58.11,6.38z"
			/>
		<path class="st0" d="M74.57,2.29c2.26,1.53,3.59,4.39,3.59,7.93c0,3.14-1.03,6.25-3.14,7.9c-1.41,1.1-3.29,1.78-5.55,1.78
			c-5.42,0-8.71-3.31-8.71-9.28c0-5.57,2.78-9.69,8.71-9.69C71.51,0.94,73.24,1.39,74.57,2.29z M69.4,17.04
			c1.73,0,2.63-0.58,3.31-1.45c0.9-1.2,1.38-2.96,1.38-5.47c0-3.04-1.08-6.4-4.57-6.4c-3.61,0-4.69,3.21-4.69,6.6
			C64.83,13.43,65.61,17.04,69.4,17.04z"/>
		<path class="st0" d="M95.64,7.23h-3.96c-0.23-2.26-1.33-3.19-2.94-3.19c-3.39,0-4.09,4.07-4.09,6.75c0,4.07,1.33,6.22,3.81,6.22
			c1.98,0,3.24-1.53,3.24-3.44h4.09c0,3.84-2.89,6.3-6.95,6.3c-5.5,0-8.25-3.71-8.25-9.11c0-5.22,2.78-9.56,8.3-9.56
			C92.41,1.21,95.62,3.22,95.64,7.23z"/>
		<path class="st0" d="M102.87,1.26v18.19h-3.89V1.26H102.87z"/>
		<path class="st0" d="M116.25,1.31l6.3,18.14h-3.91l-1.3-3.91h-7.18l-1.36,3.91h-3.71l6.55-18.14H116.25z M111.15,12.6h5.19
			l-2.51-7.73L111.15,12.6z"/>
		<path class="st0" d="M128.77,1.34v15.03h7.78v3.09H124.8V1.34H128.77z"/>
		<path class="st0" d="M151.98,1.39c2.28,0,4.49,0.55,6.1,1.78c1.78,1.38,2.89,3.89,2.89,6.98c0,4.21-1.73,7.48-5.14,8.76
			c-1.05,0.4-2.33,0.55-3.64,0.55h-6.55V1.36L151.98,1.39z M149.57,16.47c0.53,0,1.05,0.05,1.58,0.05c0.88,0,1.66-0.05,2.16-0.18
			c2.99-0.68,3.64-3.81,3.64-6.22c0-2.43-0.78-5.17-3.94-5.72c-0.53-0.1-1.36-0.13-2.11-0.13c-0.45,0-0.9,0-1.33,0.03V16.47z"/>
		<path class="st0" d="M176.12,1.31v2.96h-8.26v4.32h7.73v2.96h-7.73v4.89h8.53v3.01h-12.42V1.31H176.12z"/>
		<path class="st0" d="M193.08,6.38v0.13h-3.74V6.38c-0.15-1.66-1.18-2.63-2.94-2.63c-1.58,0-2.99,0.8-2.99,2.46
			c0,1.68,1.15,1.98,5.07,2.91c2.63,0.63,5.09,1.78,5.09,4.87c0,3.69-3.29,5.9-7.65,5.9c-4.54,0-7.1-1.71-7.1-6.22h3.96v0.15
			c0,2.26,1.18,3.29,3.29,3.29c1.73,0,3.44-0.75,3.44-2.56c0-0.7-0.28-1.23-0.8-1.56c-0.68-0.4-1.71-0.63-2.51-0.83
			c-1.81-0.45-3.51-0.9-5.09-2.01c-1.08-0.75-1.71-2.01-1.71-3.49c0.02-3.94,3.26-5.65,7.18-5.65
			C190.07,1.01,193.08,2.57,193.08,6.38z"/>
		<path class="st0" d="M200.58,1.26v18.19h-3.89V1.26H200.58z"/>
		<path class="st0" d="M218.47,2.34c1.41,1.03,2.13,2.53,2.13,4.54h-4.04c-0.08-2.13-1.38-3.24-3.54-3.24
			c-3.96,0-5.29,3.36-5.29,6.9c0,3.46,1.33,6.42,5.6,6.42c1.28,0,2.38-0.1,3.14-0.35V12.8h-3.51V9.79h7.4v9.06
			c-2.11,0.73-4.17,1-6.62,1c-3.71,0-6.17-0.83-7.75-2.46c-1.58-1.63-2.36-3.84-2.36-6.72c0-6.42,4.01-9.86,9.51-9.86
			C215.31,0.81,217.09,1.31,218.47,2.34z"/>
		<path class="st0" d="M229.61,1.31l6.8,14.28V1.31h3.61v18.14h-5.34L227.66,4.4v15.05h-3.66V1.31H229.61z"/>
	</g>
	<g>
		<path class="st0" d="M46.4,27.76v2.97l2.83-2.97h1.29l-3.04,3.04l3.37,3.75h-1.32l-3.13-3.6v3.6h-0.93v-6.79H46.4z"/>
		<path class="st0" d="M55.39,29.45c-0.04-0.68-0.52-1.03-1.42-1.03c-0.95,0-1.51,0.42-1.51,1.1c0,0.6,0.4,0.8,1.18,1
			c0.86,0.22,1.48,0.35,1.92,0.55c0.78,0.35,1,0.93,1,1.53c0,1.25-1.02,2.12-2.67,2.12c-1.71,0-2.51-0.79-2.51-2.03v-0.11h0.98
			c0.01,0.95,0.56,1.34,1.64,1.34c1.06,0,1.59-0.54,1.59-1.21c0-0.53-0.3-0.79-0.9-0.97c-1.09-0.32-1.91-0.42-2.45-0.74
			c-0.4-0.24-0.76-0.69-0.76-1.37c0-1.25,1.12-1.98,2.59-1.98c1.3,0,2.3,0.55,2.32,1.82H55.39z"/>
		<path class="st0" d="M58.89,27.76v4.33c0,1.29,0.85,1.77,1.86,1.77c1.18,0,1.82-0.59,1.82-1.87v-4.22h0.91v4.25
			c0,1.72-1.17,2.68-2.75,2.68c-0.57,0-1.08-0.11-1.53-0.35c-0.89-0.46-1.26-1.13-1.26-2.38v-4.2H58.89z"/>
		<path class="st6" d="M68.76,27.49v9.4h-0.78v-9.4H68.76z"/>
		<path class="st0" d="M76,27.76l2.75,6.79h-1.03l-0.73-1.77h-3.15l-0.73,1.77h-0.97l2.86-6.79H76z M74.14,32.02h2.57l-1.25-3.33
			L74.14,32.02z"/>
		<path class="st0" d="M82.14,29.79v0.87c-0.1-0.04-0.24-0.05-0.41-0.05c-0.93,0-1.3,0.48-1.3,1.39v2.55h-0.89v-3.83
			c0-0.08-0.02-0.56-0.05-0.89h0.89c0.01,0.45,0.02,0.75,0.02,0.91c0.16-0.64,0.73-0.96,1.49-0.96
			C81.97,29.78,82.04,29.78,82.14,29.79z"/>
		<path class="st0" d="M84.66,29.81h1.05v0.65h-1.05v2.89c0,0.42,0.23,0.57,0.63,0.57c0.16,0,0.31-0.02,0.42-0.05v0.69
			c-0.16,0.03-0.42,0.06-0.72,0.06c-0.91,0-1.2-0.33-1.2-0.98v-3.18h-0.84v-0.65h0.84v-0.99l0.87-0.28V29.81z"/>
		<path class="st0" d="M92.97,33.37c0,0.25,0.03,0.81,0.08,1.18h-0.8c-0.07-0.22-0.08-0.4-0.08-0.71c-0.29,0.54-0.73,0.86-1.47,0.86
			c-1.01,0-1.66-0.56-1.66-1.39c0-0.4,0.12-0.82,0.59-1.22c0.3-0.26,0.92-0.47,1.8-0.47c0.12,0,0.41,0,0.72,0.03v-0.32
			c0-0.28-0.02-0.49-0.11-0.64c-0.2-0.33-0.58-0.39-0.91-0.39c-0.55,0-0.89,0.28-0.91,0.8h-0.88c0.02-0.31,0.09-0.56,0.22-0.74
			c0.35-0.54,1.06-0.66,1.64-0.66c0.43,0,0.91,0.09,1.24,0.28c0.36,0.21,0.59,0.52,0.59,1.1L92.97,33.37z M92.12,32.74l0.02-0.49
			c-0.09-0.02-0.4-0.03-0.51-0.03c-1.12,0-1.7,0.33-1.7,0.95c0,0.48,0.35,0.83,0.98,0.83C91.65,34,92.09,33.51,92.12,32.74z"/>
		<path class="st0" d="M98.7,34.55h-0.9v-3.09c0-0.82-0.66-1.03-1.09-1.03c-0.71,0-1.23,0.56-1.23,1.38v2.75h-0.88v-4.18
			c0-0.08,0-0.27-0.01-0.55h0.88c0.01,0.39,0.01,0.64,0.01,0.76c0.29-0.57,0.81-0.86,1.51-0.86c0.85,0,1.71,0.45,1.71,1.6V34.55z"/>
		<path class="st0" d="M104.44,27.77v6.05c0,0.1,0.01,0.35,0.04,0.73h-0.88c0-0.13-0.01-0.39-0.02-0.75c-0.29,0.6-1,0.85-1.58,0.85
			c-1.05,0-2.04-0.71-2.04-2.4c0-1.64,0.87-2.58,2.13-2.58c0.65,0,1.17,0.24,1.47,0.8v-2.7H104.44z M103.58,32.11
			c0-1.19-0.57-1.79-1.4-1.79c-0.82,0-1.29,0.65-1.29,1.89c0,1.19,0.44,1.81,1.3,1.81C103.09,34.02,103.58,33.38,103.58,32.11z"/>
		<path class="st0" d="M110.78,27.76c1.21,0,1.85,0.22,2.42,0.79c0.56,0.56,0.92,1.53,0.92,2.66c0,1.09-0.36,2.02-0.92,2.6
			c-0.65,0.65-1.36,0.74-2.51,0.74h-2.11v-6.79H110.78z M110.51,33.77c0.7,0,1.19-0.08,1.51-0.25c0.64-0.35,1.09-1.1,1.09-2.28
			c0-0.55-0.08-1.05-0.27-1.49c-0.37-0.87-0.98-1.21-2.1-1.21h-1.22v5.24H110.51z"/>
		<path class="st0" d="M119.17,32.35h-3.4v0.07c0,1.02,0.49,1.63,1.35,1.63c0.63,0,1.04-0.35,1.11-0.98h0.88
			c-0.07,0.98-0.86,1.62-2.03,1.62c-1.45,0-2.19-0.87-2.19-2.46c0-1.81,0.96-2.53,2.23-2.53c1.35,0,2.04,0.77,2.04,2.27V32.35z
			 M118.27,31.72v-0.07c0-0.84-0.39-1.33-1.17-1.33c-0.74,0-1.29,0.54-1.29,1.39H118.27z"/>
		<path class="st0" d="M123.87,31.13h-0.9v-0.06c0-0.46-0.3-0.72-0.91-0.72c-0.6,0-0.96,0.24-0.96,0.68c0,0.28,0.2,0.48,0.57,0.57
			l1.09,0.27c0.83,0.21,1.23,0.59,1.23,1.28c0,0.46-0.23,1.51-2.01,1.51c-1.18,0-1.87-0.53-1.87-1.53h0.93
			c0,0.54,0.37,0.86,1.04,0.86c0.92,0,0.97-0.58,0.97-0.74c0-0.37-0.14-0.52-1.03-0.71c-1.16-0.24-1.82-0.52-1.82-1.41
			c0-0.85,0.74-1.43,1.84-1.43c0.39,0,0.75,0.07,1.05,0.19c0.46,0.19,0.77,0.52,0.77,1.1V31.13z"/>
		<path class="st0" d="M126.19,27.77v0.97h-1.06v-0.97H126.19z M126.1,29.82v4.72h-0.88v-4.72H126.1z"/>
		<path class="st0" d="M131.9,29.82c-0.01,0.25-0.03,0.8-0.03,1.05v2.58c0,1.37-0.03,1.91-0.34,2.31c-0.3,0.39-0.81,0.67-1.85,0.67
			c-0.65,0-1.26-0.09-1.63-0.46c-0.24-0.24-0.34-0.57-0.36-1.06h0.94c0.05,0.67,0.39,0.92,1.1,0.92c1,0,1.25-0.56,1.25-1.82v-0.36
			c-0.22,0.49-0.76,0.8-1.55,0.8c-0.66,0-1.13-0.2-1.46-0.59c-0.35-0.42-0.53-1.03-0.53-1.73c0-1.49,0.85-2.38,2.1-2.38
			c0.65,0,1.15,0.23,1.49,0.72l0.01-0.65H131.9z M130.82,33.15c0.15-0.27,0.2-0.65,0.2-1.17c0-0.64-0.15-0.97-0.4-1.22
			c-0.25-0.25-0.65-0.38-0.99-0.38c-0.8,0-1.26,0.63-1.26,1.73c0,1.08,0.44,1.68,1.3,1.68C130.21,33.8,130.58,33.59,130.82,33.15z"
			/>
		<path class="st0" d="M137.65,34.55h-0.9v-3.09c0-0.82-0.66-1.03-1.09-1.03c-0.71,0-1.23,0.56-1.23,1.38v2.75h-0.88v-4.18
			c0-0.08,0-0.27-0.01-0.55h0.88c0.01,0.39,0.01,0.64,0.01,0.76c0.29-0.57,0.81-0.86,1.51-0.86c0.85,0,1.71,0.45,1.71,1.6V34.55z"/>
	</g>
	<g>
		<path class="st6" d="M6.75,19.46c-0.41,1.2-0.63,2.48-0.63,3.82c0,6.53,5.29,11.82,11.82,11.82c6.22,0,11.27-5.05,11.27-11.27
			c0-3.96-2.02-7.22-4.96-9.64c-2.68-2.22-7.1-3.87-9.06-5.5c-1.08-0.9-1.97-2.31-1.97-3.96c0-2.61,2.11-4.72,4.72-4.72
			c2.04,0,3.71,1.27,4.56,3.4l13.38,32.44H0L6.75,19.46L6.75,19.46z"/>
	</g>
</g>
</svg>
