<?xml version="1.0" encoding="utf-8"?>
<!-- Generator: Adobe Illustrator 25.2.0, SVG Export Plug-In . SVG Version: 6.00 Build 0)  -->
<svg version="1.1" id="レイヤー_1" xmlns="http://www.w3.org/2000/svg" xmlns:xlink="http://www.w3.org/1999/xlink" x="0px"
	 y="0px" viewBox="0 0 158.44 36.9" style="enable-background:new 0 0 158.44 36.9;" xml:space="preserve">
<style type="text/css">
	.st0{fill:#231815;}
	.st1{fill:#B02D32;}
	.st2{fill:#AF2C32;}
	.st3{fill:#AF2C32;stroke:#FFFFFF;stroke-width:0.205;}
	.st4{fill:#FFFFFF;stroke:#AF2C32;stroke-width:0.124;}
	.st5{fill:#FFFFFF;stroke:#FFFFFF;stroke-width:0.0496;}
	.st6{fill:#F5A900;}
</style>
<polygon class="st0" points="6.13,32.03 7.77,28.29 5.56,28.29 4.01,31.82 4.01,28.29 1.93,28.29 1.93,36.41 4.01,36.41 4.01,32.43 
	5.72,36.38 8.09,36.38 "/>
<path class="st0" d="M21.76,33.55v-5.26h-2.18v5.35l0,0c0,0.45-0.36,0.81-0.81,0.81c-0.45,0-0.81-0.36-0.81-0.81l0,0v-5.35h-2.18
	v5.26h0c0,0.02,0,0.03,0,0.04v0.05l0,0c0.05,1.61,1.37,2.9,2.99,2.9c1.62,0,2.94-1.29,2.99-2.9l0,0v-0.02
	C21.76,33.6,21.77,33.57,21.76,33.55L21.76,33.55z"/>
<g>
	<path class="st1" d="M12.76,32.22c0,0-0.36-0.88-0.36-1.33c0-0.91,0.81-1.39,0.81-1.39l-1.02-1.83c0,0-1.05,0.34-1.66,1.84
		c-0.26,0.62-0.33,1.46-0.2,2.06c0.05,0.22,0.2,0.65,0.2,0.65c0.2,0.47,0.36,0.89,0.36,1.33c0,0.91-0.81,1.52-0.81,1.52l1.03,1.82
		c0,0,1.05-0.46,1.66-1.96c0.26-0.62,0.31-1.46,0.2-2.06C12.91,32.63,12.76,32.23,12.76,32.22z"/>
</g>
<path class="st2" d="M6.69,15.8c0,0-4.91-0.69-6.65-5.64c0,0-0.57,3.73,2.24,6.4c0,0-0.92,0.3-1.34,0.3c0,0,4.83,3.33,8.5,1.59
	C9.44,18.45,7.72,17.5,6.69,15.8z"/>
<path class="st2" d="M6.41,15.37c0,0-0.81-1.48-0.95-3.19c0,0-3.77-1.89-3.47-7.02c0,0-1.43,2.38-0.97,5.42c0,0-0.85-0.38-0.94-0.58
	C0.08,10.01,1.35,14.38,6.41,15.37z"/>
<path class="st2" d="M5.41,11.74c0,0-0.11-1.89,0.36-3.41c0,0-1.95-2.68-0.43-6.31c0,0-1.83,1.32-2.72,3.91c0,0-0.42-0.5-0.56-0.83
	C2.06,5.1,1.75,9.61,5.41,11.74z"/>
<path class="st2" d="M5.87,7.89c0,0,0.49-1.51,1.46-2.58c0,0-0.61-2.24,1.33-4.8c0,0-1.82,0.67-3.02,2.53c0,0-0.13-0.53-0.17-1.09
	C5.48,1.95,3.86,4.77,5.87,7.89z"/>
<path class="st2" d="M7.62,4.95c0,0,0.76-0.9,1.97-1.74c0,0,0.34-1.53,2.11-3.17c0,0-1.62,0.27-2.98,1.33c0,0-0.06-0.37,0.07-0.88
	C8.79,0.49,7.09,2.44,7.62,4.95z"/>
<path class="st2" d="M9.89,3.02c0,0,1.3-0.75,1.94-0.99c0,0,0.42-1.13,2.2-1.73c0,0-1.35-0.18-2.35,0.53c0,0-0.01-0.41,0.16-0.74
	C11.84,0.07,10.53,0.96,9.89,3.02z"/>
<path class="st2" d="M12.1,1.93c0,0,1.96-0.7,4.09-0.92c0,0-0.66-0.55-2.21-0.2c0,0-0.05-0.23,0.15-0.45
	C14.12,0.37,12.81,0.6,12.1,1.93z"/>
<path class="st2" d="M9.96,18.75c0,0,1.85,1.13,4.28,1.41c0,0-1.87,2.94-8.46,1.89c0,0,0.65-0.45,1.07-0.67c0,0-3.36-0.35-5.87-4.4
	C0.98,16.98,6.1,20.69,9.96,18.75z"/>
<path class="st2" d="M15.04,20.27c0,0,1.58,0.2,3.44-0.11c0,0-0.65,3.3-5.79,3.64c-1.73,0.12-4.23-0.07-6.85-1.63
	C5.84,22.17,12.33,23.49,15.04,20.27z"/>
<path class="st2" d="M18.88,20.08c0,0,1.78-0.25,3.18-2.16c0,0-2.08,3.5-5.72,4.98C16.33,22.91,18.23,22.05,18.88,20.08z"/>
<path class="st2" d="M22.29,13.5l1.29-0.05c0,0-0.4,2.91-1.34,4.16C22.23,17.61,23.28,15.94,22.29,13.5z"/>
<path class="st2" d="M14.11,1.42c0,0-9.16,1.67-8.59,10.4c0.57,8.74,11.93,9.22,14.4,7.69c0,0,3.51-1.46,2.48-5.3
	c-0.75-2.8-4.11-2.32-4.83-2.09c-0.72,0.23-1.69,1.07-1.69,1.07s1.13,0.89,1.57,1.44c0,0,0.85-1.5,2.24-1.08
	c1.39,0.42,1.52,1.6,1.39,2.28c-0.12,0.67-0.75,2.89-4.53,3.26c-3.78,0.37-9.43-0.97-10.53-6.07C4.93,7.92,7.61,3.19,14.11,1.42z"/>
<path class="st2" d="M12.2,2.17c0,0,2.75-1.11,3.88-1.04c0,0-0.45,0.84-1.81,0.93c0,0-0.07,0.28,0.28,0.5
	C14.55,2.55,12.95,2.83,12.2,2.17z"/>
<path class="st2" d="M11.9,2.31c0,0,1.04,0.59,2.59,0.34c0,0-0.35,0.73-2.12,0.92c0,0,0.3,0.22,0.46,0.26c0,0-1.72,0.54-2.8-0.51
	C10.03,3.32,11.15,2.58,11.9,2.31z"/>
<path class="st2" d="M9.73,3.53c0,0,1.31,0.91,3.14,0.37c0,0-0.38,1.85-2.66,1.88C8.52,5.81,7.89,5.29,7.89,5.29
	S8.91,4.04,9.73,3.53z"/>
<path class="st2" d="M7.66,5.52c0,0,1.66,0.58,3.39,0.22l0.68,0.36L8.58,7.15L8.4,7.96L8.04,8.18c0,0-0.87,0.2-1.73,0
	C6.31,8.18,6.78,6.59,7.66,5.52z"/>
<path class="st2" d="M6.19,8.51c0,0,1.1,0.01,1.83-0.24v2.83c0,0-0.61,0.58-2.07,0.68C5.95,11.78,5.73,10.1,6.19,8.51z"/>
<path class="st2" d="M6,12.15c0,0,1.13-0.28,2.01-0.91l-0.01,3.56c0,0-0.35,0.32-0.87,0.53C7.12,15.34,6.31,14.37,6,12.15z"/>
<path class="st2" d="M8.03,14.92c0,0-0.19,0.29-0.7,0.72c0,0,0.92,1.46,2.86,2.31c0,0,0.61-0.96,0.74-2.04L8.03,14.92z"/>
<path class="st2" d="M10.67,18.13c0,0,0.39-1.24,0.34-2.21l3.51-0.04c0,0,0.51,1.98,0.2,3.11C14.72,19,12.99,19.06,10.67,18.13z"/>
<path class="st2" d="M15.36,19c0,0-0.13-1.87-0.84-3.37l0.89-2.61c0,0,3.76,2.37,3.41,5.36C18.82,18.37,17.5,19.09,15.36,19z"/>
<path class="st2" d="M17.51,14.71c0,0,1.63,1.71,1.42,3.6c0,0,2.16-1.05,2.08-2.95c-0.06-1.53-1.48-1.94-2.17-1.74
	C18.7,13.67,17.97,13.92,17.51,14.71z"/>
<path class="st2" d="M15.85,12.29c0,0,0.55-2.05,2.46-2.71c0,0-1.8-0.64-2.51-3.08l-0.46,0.08l0.02,5.88L15.85,12.29z"/>
<path class="st2" d="M16.19,6.48c0,0,1.7-0.06,2.95,0.47c0,0,0.39,1.85,1.38,2.28c0,0-1.18-0.18-2.09,0.31
	C18.43,9.55,16.69,8.88,16.19,6.48z"/>
<path class="st2" d="M19.46,7.09c0,0,0.26,1.75,1.19,2.16c0,0,1.47,0.29,2.59,0.9C23.25,10.15,22.24,8.33,19.46,7.09z"/>
<path class="st2" d="M14.97,6.58c0,0,4.2-1.36,7.98,3.02c0,0-3.02-4.65-9.71-3.29L14.97,6.58z"/>
<path class="st2" d="M19.61,6.8c0,0,1.23-0.87,2.79,0.13c0,0,0.75,1.17,0.96,3.12C23.36,10.05,22.02,7.87,19.61,6.8z"/>
<path class="st2" d="M16.29,5.99c0,0,1.48,0.07,2.83,0.61c0,0,1.69-0.8,3.27,0.27c0,0-0.91-1.67-1.53-2.17
	C20.85,4.7,18.22,4.03,16.29,5.99z"/>
<path class="st2" d="M15.71,5.95c0,0,1.92-1.95,5.09-1.33c0,0-0.93-1.13-1.56-1.5c-0.63-0.37-5.19-0.62-7.42,2.6l0.46,0.68
	C12.29,6.4,13.49,5.93,15.71,5.95z"/>
<path class="st2" d="M13.03,3.82c0,0,2.69-1.48,6.01-0.88c0,0-1.49-1.15-2.99-1.58c0,0-0.71,0.78-1.65,0.76c0,0,0.02,0.3,0.29,0.41
	c0,0-0.37,0.86-1.99,1.08C12.7,3.61,12.84,3.74,13.03,3.82z"/>
<path class="st2" d="M12.98,3.94c0,0-0.08,0.29-0.29,0.68c0,0,1.49-1.57,4.85-1.76C17.53,2.86,15.42,2.67,12.98,3.94z"/>
<path class="st2" d="M15.82,5.97c0,0,0.22,0,0.4,0.02c0,0,1.08-1.49,3.82-1.42C20.04,4.56,17.74,4.21,15.82,5.97z"/>
<path class="st2" d="M19.24,6.64c0,0,0.16,0.07,0.3,0.12c0,0,0.94-0.69,2.38-0.12C21.92,6.65,20.71,6,19.24,6.64z"/>
<path class="st2" d="M19.19,6.98c0,0,0.12,0.05,0.21,0.08c0,0,0.18,1.2,0.86,1.96C20.26,9.02,19.54,8.53,19.19,6.98z"/>
<path class="st2" d="M15.86,6.5c0,0,0.16-0.02,0.27-0.02c0,0,0.24,1.77,1.79,2.83C17.92,9.31,16.44,8.49,15.86,6.5z"/>
<path class="st2" d="M11.97,2.28c0,0,0.1-0.04,0.16-0.07c0,0,0.51,0.43,1.44,0.44C13.57,2.64,12.71,2.68,11.97,2.28z"/>
<path class="st2" d="M11.89,2.01c0,0,0.06-0.03,0.17-0.06c0,0,0.32-0.76,1.19-1.27C13.25,0.68,12.35,1.1,11.89,2.01z"/>
<path class="st2" d="M9.8,3.49c0,0,0.14-0.11,0.19-0.14c0,0,0.56,0.64,1.92,0.66C11.9,4.02,10.84,4.16,9.8,3.49z"/>
<path class="st2" d="M9.66,3.17l0.18-0.12c0,0,0.17-0.85,1.02-2.03C10.86,1.01,10,1.98,9.66,3.17z"/>
<path class="st2" d="M7.71,5.48c0,0,0.05-0.07,0.13-0.14c0,0,0.65,0.41,1.99,0.47C9.83,5.81,8.95,5.88,7.71,5.48z"/>
<path class="st2" d="M6.28,8.24c0,0,0.5,0.15,1.59,0.03c0,0-0.62,0.2-1.66,0.19L6.28,8.24z"/>
<path class="st2" d="M5.99,12.1c0,0-0.02-0.09-0.04-0.25c0,0,0.89-0.03,1.78-0.49C7.73,11.36,7.14,11.79,5.99,12.1z"/>
<path class="st2" d="M7.14,15.39c0,0,0.08,0.13,0.16,0.22c0,0,0.56-0.44,0.68-0.67l-0.01-0.08C7.97,14.86,7.63,15.17,7.14,15.39z"/>
<path class="st2" d="M10.27,17.98c0,0,0.1,0.07,0.33,0.13c0,0,0.43-1.29,0.37-2.11C10.97,16,10.75,17.22,10.27,17.98z"/>
<path class="st2" d="M14.83,18.99c0,0,0.24,0.02,0.43,0.01c0,0-0.12-1.86-0.67-3.08C14.59,15.92,15.09,17.74,14.83,18.99z"/>
<path class="st2" d="M7.38,5.25c0,0,0.11-0.15,0.2-0.24c0,0-0.45-1.22,0.37-3.26C7.95,1.75,7.08,3.28,7.38,5.25z"/>
<path class="st2" d="M5.78,8.23l0.06-0.25c0,0-0.91-1.06-1.03-3.36C4.81,4.63,4.68,6.4,5.78,8.23z"/>
<path class="st2" d="M5.45,12.12c0,0-0.04-0.22-0.04-0.31c0,0-2.31-1.01-3.19-4.35C2.23,7.46,2.68,10.45,5.45,12.12z"/>
<path class="st2" d="M6.61,15.72c0,0-0.14-0.2-0.18-0.27c0,0-2.57-0.26-4.85-2.69C1.59,12.76,3.05,14.9,6.61,15.72z"/>
<path class="st2" d="M9.86,18.71c0,0-0.23-0.13-0.33-0.2c0,0-2.02,1.32-6.26-0.32C3.27,18.19,6.76,20.15,9.86,18.71z"/>
<path class="st2" d="M18.56,20.15c0,0,0.12-0.02,0.23-0.05c0,0-0.39,1.28-1.54,2.14C17.24,22.24,18.41,21.16,18.56,20.15z"/>
<path class="st2" d="M14.37,20.19c0,0,0.36,0.04,0.53,0.06c0,0-1.4,2.05-5.7,2.09C9.2,22.34,12.96,22.25,14.37,20.19z"/>
<path class="st3" d="M16.06,8.4V6.71c0-0.44-0.36-0.8-0.8-0.8h-2.45c-0.15-0.42-0.55-0.72-1.02-0.72c-0.47,0-0.87,0.3-1.02,0.72
	H8.34c-0.44,0-0.8,0.36-0.8,0.8V8.4c0,0.29,0.13,0.55,0.34,0.72C7.67,9.29,7.54,9.55,7.54,9.84v1.36c0,0.29,0.13,0.55,0.34,0.72
	c-0.21,0.15-0.34,0.39-0.34,0.66v2.95c0,0.51,0.41,0.93,0.92,0.93c0.25,0,0.49-0.11,0.66-0.28c0.12,0.14,0.28,0.23,0.47,0.23h1.29
	c0.03,0.49,0.43,0.87,0.92,0.87c0.49,0,0.89-0.39,0.92-0.87h1.38c0.16,0,0.32-0.07,0.43-0.19c0.16,0.14,0.37,0.23,0.61,0.23
	c0.51,0,0.92-0.42,0.92-0.93v-2.95c0-0.27-0.13-0.51-0.34-0.66c0.21-0.17,0.34-0.43,0.34-0.72V9.84c0-0.29-0.13-0.55-0.34-0.72
	C15.93,8.95,16.06,8.69,16.06,8.4z"/>
<path class="st4" d="M15.72,12.58c0-0.25-0.2-0.46-0.45-0.46H8.34c-0.25,0-0.46,0.21-0.46,0.46c0,0.1,0,2.95,0,2.95
	c0,0.32,0.26,0.59,0.58,0.59c0.32,0,0.58-0.26,0.58-0.59v-2.49h5.52v2.49c0,0.32,0.26,0.59,0.58,0.59c0.32,0,0.58-0.26,0.58-0.59
	C15.72,15.53,15.72,12.68,15.72,12.58z"/>
<path class="st4" d="M9.91,10.84c0.15,0,0.28-0.14,0.28-0.31c0-0.18-0.12-0.32-0.28-0.32H9.04V9.89h0.87c0.15,0,0.28-0.14,0.28-0.31
	c0-0.18-0.12-0.32-0.28-0.32c0,0-1.44,0-1.45,0c-0.32,0-0.58,0.26-0.58,0.58v1.36c0,0.33,0.26,0.58,0.58,0.58c0.01,0,1.45,0,1.45,0
	c0.15,0,0.28-0.14,0.28-0.32c0-0.17-0.12-0.32-0.28-0.32H9.04v-0.32H9.91z"/>
<path class="st4" d="M15.14,9.26c-0.01,0-1.45,0-1.45,0c-0.15,0-0.28,0.14-0.28,0.32c0,0.17,0.12,0.31,0.28,0.31h0.87v0.32h-0.87
	c-0.15,0-0.28,0.14-0.28,0.32c0,0.17,0.12,0.31,0.28,0.31h0.87v0.32h-0.87c-0.15,0-0.28,0.14-0.28,0.32c0,0.18,0.12,0.32,0.28,0.32
	c0,0,1.44,0,1.45,0c0.32,0,0.58-0.26,0.58-0.58V9.84C15.72,9.52,15.46,9.26,15.14,9.26z"/>
<path class="st4" d="M13.92,13.29c-0.25,0-0.46,0.21-0.46,0.46v1.68h-1.08V15.1h0.54c0.15,0,0.27-0.14,0.27-0.31
	c0-0.02,0-1.1,0-1.12c0-0.18-0.12-0.32-0.27-0.32h-2.2c-0.15,0-0.27,0.14-0.27,0.32c0,0.01,0,1.11,0,1.12
	c0,0.17,0.12,0.31,0.27,0.31h0.51v0.33h-0.99v-1.68c0-0.25-0.21-0.46-0.46-0.46c-0.25,0-0.46,0.21-0.46,0.46c0,0,0,1.94,0,1.99
	c0,0.17,0.12,0.32,0.28,0.32h1.63v0.29c0,0.32,0.26,0.58,0.58,0.58c0.32,0,0.58-0.26,0.58-0.58v-0.29h1.72
	c0.15,0,0.27-0.14,0.27-0.32c0-0.05,0-1.99,0-1.99C14.38,13.5,14.17,13.29,13.92,13.29z M11.2,13.98h1.23v0.49H11.2V13.98z"/>
<g>
	<path class="st5" d="M10.82,10.18c0.08,0.13,0.27,0.16,0.42,0.06l0.56-0.36l0.56,0.36c0.15,0.09,0.34,0.07,0.42-0.06
		c0.08-0.13,0.02-0.31-0.13-0.41l-0.34-0.21l0.34-0.22c0.15-0.1,0.21-0.28,0.13-0.41c-0.08-0.13-0.27-0.16-0.42-0.06L11.8,9.24
		l-0.56-0.36c-0.15-0.1-0.34-0.07-0.42,0.06c-0.08,0.13-0.02,0.31,0.13,0.41l0.34,0.22l-0.34,0.21
		C10.79,9.87,10.73,10.06,10.82,10.18z"/>
	<path class="st5" d="M12.65,11.3l-0.34-0.21l0.34-0.21c0.15-0.1,0.21-0.28,0.13-0.41c-0.08-0.13-0.27-0.15-0.42-0.06l-0.56,0.35
		l-0.56-0.35c-0.15-0.1-0.34-0.07-0.42,0.06c-0.08,0.13-0.02,0.31,0.13,0.41l0.34,0.21l-0.34,0.21c-0.15,0.1-0.21,0.28-0.13,0.41
		c0.08,0.13,0.27,0.15,0.42,0.06l0.56-0.36l0.56,0.36c0.15,0.1,0.34,0.07,0.42-0.06C12.87,11.58,12.81,11.4,12.65,11.3z"/>
</g>
<path class="st4" d="M15.72,6.71c0-0.25-0.2-0.46-0.45-0.46h-2.73c-0.01-0.4-0.34-0.72-0.73-0.72c-0.4,0-0.72,0.32-0.73,0.72H8.34
	c-0.25,0-0.46,0.21-0.46,0.46c0,0.1,0,1.69,0,1.69c0,0.32,0.26,0.58,0.58,0.58c0.32,0,0.58-0.27,0.58-0.58V7.3
	c0-0.04,0-0.08-0.01-0.12h1.7c-0.26,0.28-0.45,0.47-0.77,0.76C9.66,8.21,9.6,8.6,9.83,8.83c0.23,0.23,0.66,0.21,0.94-0.06
	c0.4-0.37,0.59-0.56,0.96-0.96c0.03-0.03,0.05-0.06,0.07-0.09c0.02,0.03,0.04,0.05,0.06,0.08c0.37,0.4,0.56,0.6,0.97,0.97
	c0.29,0.27,0.72,0.3,0.95,0.07C14,8.6,13.94,8.21,13.65,7.94c-0.32-0.3-0.51-0.49-0.77-0.76h1.7c-0.01,0.04-0.01,0.08-0.01,0.12V8.4
	c0,0.32,0.26,0.58,0.58,0.58c0.32,0,0.58-0.27,0.58-0.58C15.72,8.4,15.72,6.82,15.72,6.71z"/>
<g>
	<path class="st0" d="M41.93,20.18h-2.14c-0.69,0-1.81-0.36-1.81-1.59c0-0.06,0-0.1,0-0.16l0.85-9.39h-3.95
		c-0.18,3.7-1.14,8.21-6.17,11.79l-1.67-1.55c4.52-2.55,5.66-6.78,5.88-10.24h-5.05V7.27h5.13V3.18h1.93v4.09h6.09l-0.96,10.57
		c0,0.46,0.24,0.57,0.59,0.57h0.28c1.32,0,1.41-0.06,1.81-3.83l2.02,1.18C44.21,19.84,43.31,20.18,41.93,20.18z"/>
	<path class="st0" d="M47.42,14.22l-1.57-1.2c0,0,1.14-1.48,1.14-4.41c0-0.21,0-0.41-0.02-0.63h1.77c0,0.06,0,0.12,0,0.2
		C48.73,12.49,47.42,14.22,47.42,14.22z M48,20.85l-1.65-1.57c2.62-1.91,3.32-4.4,3.32-9.24V3.47h1.89v6.56
		C51.56,15.24,51.01,18.35,48,20.85z M55.18,19.88v-7.23l-1.53,0.88c0,0-0.79-2.89-1.69-4.97l1.63-0.67
		c0.83,1.93,1.3,3.46,1.59,4.44V4.2h1.89v15.69H55.18z M60.68,20.53v-7.9l-1.55,0.87c0,0-0.69-2.6-1.69-4.9l1.63-0.71
		c0.75,1.77,1.32,3.55,1.61,4.54V3.49h1.97v17.04H60.68z"/>
	<path class="st0" d="M67.84,9.72v0.41c0,4.4-0.04,8.1-1.99,10.73l-1.55-1.43c1.59-2.11,1.63-4.7,1.63-8.73c0-0.18,0-0.37,0-0.57
		v-2.1h3.54c-0.27-0.59-0.75-1.41-1.16-2.1h-2.18V4.28h6.09v-1.1h2.2v1.1h6.13v1.65h-1.88c-0.31,0.78-0.71,1.53-1.04,2.1h4.09v1.69
		H67.84z M68.54,20.22v-1.67h5.6v-1.78h-3.68v-1.52h3.68V13.6h-3.11c-0.59,1-1.53,2.02-1.53,2.02l-1.42-1.3c0,0,1.73-1.47,2.53-3.93
		l1.81,0.59c-0.12,0.31-0.32,0.67-0.51,1.02h2.22v-1.67h1.93V12h4.66v1.59h-4.66v1.65h4.05v1.52h-4.05v1.78h5.72v1.67H68.54z
		 M70.51,5.93c0.33,0.59,0.84,1.55,1.08,2.1h3.83c0.33-0.51,0.77-1.28,1.12-2.1H70.51z"/>
	<path class="st0" d="M100.54,20.33c-3.05-0.63-5.32-1.83-7.08-3.38v3.91h-2v-3.89c-1.61,1.61-3.89,2.73-6.78,3.38l-1.02-1.92
		c2.69-0.41,4.58-0.9,5.9-1.79h-5.42v-1.63h7.33v-1.33h-5.6v-1.46h5.6v-1.18h-6.31V9.55h3.97c-0.31-0.73-0.67-1.3-0.96-1.79h-4.05
		V6.1h2.61c-0.35-0.47-1.1-1.32-1.65-1.89l1.67-0.88c0.87,1.12,1.57,2.08,1.97,2.77h0.75V3.18h1.93V6.1h2.22V3.18h1.92V6.1h0.85
		c0.75-0.78,1.3-1.65,1.83-2.77l1.71,0.77c-0.39,0.75-0.98,1.53-1.47,2h2.44v1.65h-3.93c-0.2,0.55-0.59,1.2-0.9,1.79h3.79v1.49
		h-6.37v1.18h5.66v1.46h-5.66v1.33h7.41v1.63h-5.41c1.34,0.73,3.19,1.42,5.86,1.79L100.54,20.33z M90.32,7.76
		c0.23,0.47,0.55,1.14,0.81,1.79h2.79c0.43-0.61,0.75-1.28,0.88-1.79H90.32z"/>
	<path class="st0" d="M119.17,20.87c-3.79-2.26-6.39-5.76-7.54-8.83c-0.88,3.3-3.77,6.82-7.76,8.83l-1.24-1.85
		c5.42-2.44,7.37-6.64,7.72-9.53h-7.27V7.68h7.35v-4.5h2.04v4.5h7.37v1.81h-7.27c0,0,1.06,5.64,7.74,9.47L119.17,20.87z"/>
	<path class="st0" d="M136.94,10.76V8.48h-13.03v2.3h-1.93V6.71h2.71c0,0-0.67-1.08-1.73-2.3l1.77-1.1
		c1.18,1.47,1.75,2.48,1.75,2.48l-1.44,0.92h4.46c0,0-0.61-1.06-1.73-2.35l1.79-1.06c1.14,1.43,1.73,2.48,1.73,2.48l-1.59,0.94h3.72
		c0,0,1.47-1.91,2.1-3.36l1.99,0.92c-0.51,0.87-1.2,1.81-1.73,2.44h3.09v4.05H136.94z M131.95,16.37v1.81
		c0,2.37-1.53,2.57-3.93,2.65l-0.79-1.86c0.49,0,0.93,0,1.28,0c1.06,0,1.51-0.08,1.51-0.78v-1.81h-7.98v-1.77h7.98V13.1h1.04
		c1.08-0.47,2.06-1.26,2.06-1.26h-8.12v-1.77h10.81v1.71c0,0-1.44,1.57-3.89,2.75v0.06h6.92v1.77H131.95z"/>
</g>
<g>
	<path class="st0" d="M29.23,34.46h-1.34v-6.15h1.34V34.46z M33.35,34.46h-1.67l-2.44-3.38l2.21-2.77h1.62l-2.42,2.72L33.35,34.46z"
		/>
	<path class="st0" d="M38.79,28.29l-2.39,3.77v2.39h-1.34v-2.39l-2.39-3.77h1.56l1.55,2.85l1.57-2.85H38.79z"/>
	<path class="st0" d="M44.66,31.9c0,1.8-0.91,2.7-2.72,2.7c-1.16,0-1.94-0.36-2.35-1.08c-0.22-0.38-0.33-0.93-0.33-1.65v-3.56h1.37
		v3.63c0,0.54,0.09,0.93,0.26,1.2c0.21,0.32,0.57,0.48,1.08,0.48c0.91,0,1.36-0.57,1.36-1.72v-3.59h1.34V31.9z"/>
	<path class="st0" d="M50.57,32.63c0,0.65-0.28,1.15-0.83,1.49c-0.47,0.3-1.05,0.44-1.74,0.44c-0.72,0-1.29-0.15-1.71-0.45
		c-0.48-0.34-0.72-0.85-0.73-1.55h1.34c0.02,0.69,0.4,1.04,1.13,1.04c0.31,0,0.57-0.07,0.79-0.21c0.25-0.16,0.37-0.38,0.37-0.67
		c0-0.28-0.17-0.49-0.53-0.64c-0.24-0.07-0.59-0.18-1.07-0.32c-0.61-0.19-1.04-0.37-1.29-0.55c-0.4-0.3-0.61-0.7-0.61-1.2
		c0-0.63,0.26-1.11,0.78-1.43c0.44-0.27,0.99-0.4,1.66-0.4c1.49,0,2.23,0.59,2.24,1.78h-1.34c-0.06-0.59-0.39-0.88-1.01-0.88
		c-0.27,0-0.5,0.07-0.68,0.2c-0.21,0.15-0.31,0.35-0.31,0.6c0,0.17,0.07,0.31,0.2,0.41c0.13,0.1,0.44,0.24,0.94,0.4
		c0.34,0.11,0.69,0.22,1.03,0.33c0.46,0.17,0.78,0.36,0.97,0.55C50.44,31.84,50.57,32.19,50.57,32.63z"/>
	<path class="st0" d="M56.89,34.46h-1.34v-2.63H52.9v2.63h-1.34v-6.15h1.34v2.51h2.66v-2.51h1.34V34.46z"/>
	<path class="st0" d="M63.61,31.9c0,1.8-0.91,2.7-2.73,2.7c-1.16,0-1.94-0.36-2.35-1.08c-0.22-0.38-0.33-0.93-0.33-1.65v-3.56h1.37
		v3.63c0,0.54,0.09,0.93,0.26,1.2c0.21,0.32,0.57,0.48,1.08,0.48c0.91,0,1.36-0.57,1.36-1.72v-3.59h1.34V31.9z"/>
	<path class="st0" d="M72.18,32.63c0,0.65-0.28,1.15-0.83,1.49c-0.47,0.3-1.05,0.44-1.74,0.44c-0.72,0-1.29-0.15-1.71-0.45
		c-0.48-0.34-0.73-0.85-0.74-1.55h1.34c0.02,0.69,0.4,1.04,1.13,1.04c0.31,0,0.57-0.07,0.79-0.21c0.25-0.16,0.37-0.38,0.37-0.67
		c0-0.28-0.18-0.49-0.53-0.64c-0.24-0.07-0.59-0.18-1.06-0.32c-0.61-0.19-1.04-0.37-1.29-0.55c-0.41-0.3-0.61-0.7-0.61-1.2
		c0-0.63,0.26-1.11,0.78-1.43c0.44-0.27,0.99-0.4,1.66-0.4c1.49,0,2.23,0.59,2.24,1.78h-1.34c-0.06-0.59-0.39-0.88-1.01-0.88
		c-0.27,0-0.5,0.07-0.68,0.2c-0.2,0.15-0.3,0.35-0.3,0.6c0,0.17,0.06,0.31,0.2,0.41c0.13,0.1,0.44,0.24,0.94,0.4
		c0.34,0.11,0.69,0.22,1.03,0.33c0.45,0.17,0.78,0.36,0.97,0.55C72.05,31.84,72.18,32.19,72.18,32.63z"/>
	<path class="st0" d="M78.98,34.46h-1.47l-0.53-1.41h-2.69l-0.53,1.41h-1.32l2.49-6.15h1.51L78.98,34.46z M76.63,32.14l-0.99-2.89
		l-1.03,2.89H76.63z"/>
	<path class="st0" d="M84.94,34.46h-1.87l-2.37-5.07v5.07h-1.15v-6.15h1.88l2.36,5.07v-5.07h1.15V34.46z"/>
	<path class="st0" d="M91.51,34.22c-0.84,0.23-1.63,0.34-2.36,0.34c-1,0-1.79-0.28-2.35-0.83c-0.56-0.56-0.85-1.34-0.85-2.34
		c0-0.98,0.28-1.76,0.84-2.35c0.56-0.59,1.32-0.89,2.29-0.89c1.51,0,2.32,0.65,2.43,1.93l-1.35,0c-0.09-0.62-0.48-0.94-1.16-0.94
		c-0.57,0-1,0.24-1.29,0.71c-0.24,0.39-0.37,0.89-0.37,1.5c0,0.65,0.14,1.18,0.44,1.58c0.32,0.45,0.8,0.68,1.43,0.68
		c0.38,0,0.72-0.04,1.03-0.13v-1.44h-1.29v-0.91h2.56V34.22z"/>
	<path class="st0" d="M97.73,28.29l-2.38,3.77v2.39h-1.34v-2.39l-2.39-3.77h1.56l1.55,2.85l1.57-2.85H97.73z"/>
	<path class="st0" d="M103.53,31.37c0,0.95-0.25,1.72-0.74,2.29c-0.53,0.61-1.27,0.91-2.21,0.91c-0.95,0-1.68-0.3-2.2-0.89
		c-0.48-0.56-0.72-1.33-0.72-2.29c0-0.97,0.25-1.74,0.74-2.31c0.52-0.62,1.26-0.93,2.21-0.93c0.96,0,1.69,0.3,2.21,0.91
		C103.29,29.63,103.53,30.4,103.53,31.37z M102.19,31.36c0-0.62-0.11-1.12-0.34-1.51c-0.28-0.48-0.7-0.72-1.28-0.72
		c-0.56,0-0.98,0.25-1.25,0.73c-0.22,0.39-0.33,0.89-0.33,1.5c0,0.63,0.1,1.14,0.32,1.52c0.27,0.49,0.69,0.72,1.27,0.72
		c0.58,0,1.01-0.24,1.28-0.72C102.08,32.5,102.19,31.98,102.19,31.36z"/>
	<path class="st0" d="M112.49,31.9c0,1.8-0.91,2.7-2.73,2.7c-1.16,0-1.94-0.36-2.35-1.08c-0.22-0.38-0.33-0.93-0.33-1.65v-3.56h1.37
		v3.63c0,0.54,0.09,0.93,0.27,1.2c0.21,0.32,0.57,0.48,1.08,0.48c0.91,0,1.36-0.57,1.36-1.72v-3.59h1.34V31.9z"/>
	<path class="st0" d="M119.19,34.46h-1.88l-2.37-5.07v5.07h-1.14v-6.15h1.88l2.37,5.07v-5.07h1.15V34.46z"/>
	<path class="st0" d="M121.84,34.46h-1.33v-6.15h1.33V34.46z"/>
	<path class="st0" d="M128.51,28.31l-2.27,6.15h-1.57l-2.24-6.15h1.44l1.63,5.03l1.69-5.03H128.51z"/>
	<path class="st0" d="M133.34,34.46h-4.25v-6.15h4.16v0.96h-2.86v1.59h2.7v0.94h-2.7v1.7h2.94V34.46z"/>
	<path class="st0" d="M139.28,34.46h-1.39c-0.08-0.21-0.13-0.47-0.16-0.79c-0.03-0.27-0.06-0.53-0.08-0.8
		c-0.04-0.39-0.12-0.66-0.24-0.79c-0.14-0.15-0.4-0.22-0.78-0.22h-0.99v2.59h-1.33v-6.15h2.36c0.66,0,1.15,0.07,1.48,0.2
		c0.66,0.27,0.99,0.72,0.99,1.35c0,0.81-0.46,1.31-1.4,1.49v0.01c0.35,0.02,0.62,0.1,0.79,0.24c0.18,0.14,0.3,0.37,0.37,0.69
		c0.02,0.07,0.05,0.28,0.09,0.61c0.03,0.26,0.06,0.52,0.1,0.79C139.12,34,139.19,34.26,139.28,34.46z M137.82,30.08
		c0-0.56-0.44-0.84-1.34-0.84h-0.85v1.72h0.75c0.43,0,0.75-0.04,0.96-0.13C137.66,30.7,137.82,30.45,137.82,30.08z"/>
	<path class="st0" d="M144.93,32.63c0,0.65-0.27,1.15-0.83,1.49c-0.46,0.3-1.05,0.44-1.74,0.44c-0.73,0-1.29-0.15-1.71-0.45
		c-0.48-0.34-0.72-0.85-0.73-1.55h1.34c0.02,0.69,0.4,1.04,1.13,1.04c0.31,0,0.57-0.07,0.79-0.21c0.25-0.16,0.37-0.38,0.37-0.67
		c0-0.28-0.18-0.49-0.53-0.64c-0.24-0.07-0.6-0.18-1.07-0.32c-0.61-0.19-1.04-0.37-1.29-0.55c-0.4-0.3-0.6-0.7-0.6-1.2
		c0-0.63,0.26-1.11,0.78-1.43c0.44-0.27,0.99-0.4,1.66-0.4c1.49,0,2.23,0.59,2.24,1.78h-1.34c-0.06-0.59-0.39-0.88-1.01-0.88
		c-0.27,0-0.49,0.07-0.68,0.2c-0.21,0.15-0.31,0.35-0.31,0.6c0,0.17,0.07,0.31,0.2,0.41c0.13,0.1,0.45,0.24,0.95,0.4
		c0.34,0.11,0.68,0.22,1.03,0.33c0.46,0.17,0.78,0.36,0.98,0.55C144.81,31.84,144.93,32.19,144.93,32.63z"/>
	<path class="st0" d="M147.27,34.46h-1.34v-6.15h1.34V34.46z"/>
	<path class="st0" d="M153.12,29.28h-1.93v5.17h-1.34v-5.17h-1.92v-0.97h5.18V29.28z"/>
	<path class="st0" d="M158.44,28.29l-2.39,3.77v2.39h-1.34v-2.39l-2.39-3.77h1.55l1.55,2.85l1.57-2.85H158.44z"/>
</g>
</svg>
